# xmcd
#
# Track frame offsets:
#	225
#	11540
#	21910
#	31782
#	42920
#	60425
#	72855
#	92765
#	116360
#	130742
#	141825
#	151035
#	168665
#	180375
#	191590
#	202105
#
# Disc length: 2817 seconds
#
# Revision: 2
# Processed by: cddbd v1.4b41PL3 Copyright (c) Steve Scherf et al.
# Submitted via: EZCDDA 4.3.2
#
DISCID=ce0afe10
DTITLE=Eric Clapton - Eric Clapton and Friends
DYEAR=1900
DGENRE=
TTITLE0=For Your Love
TTITLE1=I Wish You Would
TTITLE2=Tribute To Elmore
TTITLE3=Miles Road
TTITLE4=Little Red Rooster
TTITLE5=Highway 49
TTITLE6=Wang-Dang-Doodle
TTITLE7=23 Hours Too Long
TTITLE8=Out On The Water Coast
TTITLE9=Boom Boom
TTITLE10=I Ain't Got You
TTITLE11=Too Much Monkey Business
TTITLE12=Got Love If You Want It
TTITLE13=Think It Over
TTITLE14=Down The Line
TTITLE15=The Boll Weevil Song
EXTD=
EXTT0=
EXTT1=
EXTT2=
EXTT3=
EXTT4=
EXTT5=
EXTT6=
EXTT7=
EXTT8=
EXTT9=
EXTT10=
EXTT11=
EXTT12=
EXTT13=
EXTT14=
EXTT15=
PLAYORDER=
